<svg id="visual" viewBox="0 0 1024 512" width="1024" height="512" xmlns="http://www.w3.org/2000/svg"
    xmlns:xlink="http://www.w3.org/1999/xlink" version="1.1">
    <g transform="translate(524.3580908613632 234.1580380517703)">
        <path
            d="M173.5 -296.2C235 -265 302 -239 342.6 -190.5C383.3 -142 397.6 -71 389.3 -4.8C380.9 61.3 349.8 122.7 313.5 178.7C277.1 234.7 235.6 285.3 182.4 328.7C129.3 372 64.7 408 -0.2 408.4C-65.2 408.9 -130.3 373.7 -193.6 336.2C-256.8 298.7 -318 258.9 -360.1 202.4C-402.2 146 -425.1 73 -413.1 6.9C-401.1 -59.2 -354.3 -118.3 -308.2 -167.8C-262.1 -217.3 -216.8 -257.2 -165.6 -294.3C-114.3 -331.4 -57.2 -365.7 -0.6 -364.7C56 -363.7 112 -327.3 173.5 -296.2"
            fill="#efc334"></path>
    </g>
</svg>